<?xml version="1.0" encoding="UTF-8" standalone="no"?>
<svg
   width="16"
   height="16"
   version="1.1"
   id="svg115"
   sodipodi:docname="battery.svg"
   inkscape:version="1.2.2 (b0a8486541, 2022-12-01)"
   inkscape:export-filename="battery.png"
   inkscape:export-xdpi="192"
   inkscape:export-ydpi="192"
   xmlns:inkscape="http://www.inkscape.org/namespaces/inkscape"
   xmlns:sodipodi="http://sodipodi.sourceforge.net/DTD/sodipodi-0.dtd"
   xmlns="http://www.w3.org/2000/svg"
   xmlns:svg="http://www.w3.org/2000/svg">
  <defs
     id="defs119" />
  <sodipodi:namedview
     id="namedview117"
     pagecolor="#ffffff"
     bordercolor="#000000"
     borderopacity="0.25"
     inkscape:showpageshadow="2"
     inkscape:pageopacity="0.0"
     inkscape:pagecheckerboard="0"
     inkscape:deskcolor="#d1d1d1"
     showgrid="false"
     inkscape:zoom="46.4375"
     inkscape:cx="7.5585464"
     inkscape:cy="8.064603"
     inkscape:window-width="1351"
     inkscape:window-height="928"
     inkscape:window-x="283"
     inkscape:window-y="61"
     inkscape:window-maximized="0"
     inkscape:current-layer="svg115" />
  <path
     d="m2 3c-1.108 0-2 0.892-2 2v6c0 1.108 0.892 2 2 2h11c1.108 0 2-0.892 2-2v-2h1v-2h-1v-2c0-1.108-0.892-2-2-2zm0 1h11c0.554 0 1 0.446 1 1v6c0 0.554-0.446 1-1 1h-11c-0.554 0-1-0.446-1-1v-6c0-0.554 0.446-1 1-1z"
     fill="#363636"
     stroke-linecap="round"
     stroke-linejoin="round"
     stroke-width="1.5"
     style="paint-order:stroke fill markers;fill:#ffffff;fill-opacity:1"
     id="path111" />
  <rect
     x="2"
     y="5"
     width="11"
     height="6"
     rx="0"
     ry="0"
     fill="#363636"
     stroke-linecap="round"
     stroke-linejoin="round"
     stroke-width="1.5"
     style="paint-order:stroke fill markers;fill:#ffffff;fill-opacity:1"
     id="rect113" />
</svg>
